<?xml version="1.0" standalone="no"?>
<!DOCTYPE svg PUBLIC "-//W3C//DTD SVG 20010904//EN"
 "http://www.w3.org/TR/2001/REC-SVG-20010904/DTD/svg10.dtd">
<svg version="1.0" xmlns="http://www.w3.org/2000/svg"
 width="1000.000000pt" height="1000.000000pt" viewBox="0 0 1000.000000 1000.000000"
 preserveAspectRatio="xMidYMid meet">
<metadata>
Created by potrace 1.14, written by Peter Selinger 2001-2017
</metadata>
<g transform="translate(0.000000,1000.000000) scale(0.100000,-0.100000)"
fill="#000000" stroke="none">
<path d="M0 5000 l0 -5000 5000 0 5000 0 0 5000 0 5000 -5000 0 -5000 0 0
-5000z m4884 728 c221 -472 403 -858 406 -858 3 0 104 366 224 813 120 446
225 833 233 860 l14 47 432 -2 432 -3 76 -220 c41 -121 133 -390 203 -598 71
-208 132 -376 137 -375 4 2 245 272 535 601 l527 597 478 0 c377 0 479 -3 478
-12 0 -7 -188 -710 -417 -1563 l-417 -1550 -420 -3 c-231 -1 -425 0 -431 2 -7
3 73 319 223 882 128 483 232 881 231 884 -2 4 -252 -265 -557 -597 -318 -348
-557 -601 -562 -596 -5 5 -109 274 -231 597 -164 435 -224 584 -230 570 -5
-11 -109 -397 -233 -859 -124 -462 -229 -850 -235 -863 l-10 -22 -376 2 -376
3 -416 892 c-229 491 -419 893 -422 893 -3 0 -36 -118 -74 -263 -38 -144 -75
-283 -83 -309 l-14 -48 -430 0 c-343 0 -430 3 -426 13 2 7 118 433 256 947
139 514 257 950 262 968 l11 32 400 -2 401 -3 401 -857z m-2077 840 c-6 -17
-627 -2335 -627 -2342 0 -3 391 -7 869 -8 l869 -3 -792 -1150 c-720 -1048
-847 -1230 -833 -1200 10 22 507 1584 507 1594 0 8 -237 11 -845 11 -465 0
-845 2 -845 5 0 10 832 3090 837 3098 2 4 198 7 435 7 340 0 429 -3 425 -12z"/>
</g>
</svg>
