<svg version="1" xmlns="http://www.w3.org/2000/svg" width="533.333" height="533.333" viewBox="0 0 400.000000 400.000000"><path d="M57.7 2.1C38.8 6.7 23 18 12.2 34.4 7.8 41.1 5.5 46.2 2.1 56.5.7 61 .5 74.4.5 199.5v138l2.2 7.6C10 369.4 24.6 385 50.5 396c1.1.5 3.6 1.2 5.5 1.6 1.9.4 4.2 1 5 1.3.8.3 62.3.6 136.5.8 119.2.2 135.9.1 142.5-1.3 4.1-.8 8.8-2.2 10.4-3 1.6-.8 3.3-1.4 3.9-1.4.5 0 4.5-2.1 8.9-4.7 14.9-8.9 26.4-22.6 32-38.3 4.9-13.5 4.7-8.8 4.5-153.5-.3-148.5.2-137.2-5.9-152.1-7.7-18.7-26-35.5-45.3-41.6-4.1-1.2-6.2-1.7-12-2.8-2.8-.5-63.5-.9-138-.9C71.2.2 65.2.2 57.7 2.1z"/></svg>